<svg width="136" height="24" viewBox="0 0 136 24" fill="none" xmlns="http://www.w3.org/2000/svg">
<path d="M9.4 22.648C10.4667 22.648 11.4053 22.36 12.216 21.784C13.048 21.208 13.464 20.344 13.464 19.192C13.464 18.0187 13.016 17.1227 12.12 16.504C11.2453 15.8853 9.98667 15.352 8.344 14.904C6.72267 14.4347 5.53867 14.0293 4.792 13.688C4.06667 13.3467 3.37333 12.8987 2.712 12.344C1.38933 11.2347 0.728 9.51733 0.728 7.192C0.728 5.29333 1.4 3.66133 2.744 2.296C4.10933 0.930666 5.96533 0.247999 8.312 0.247999C9.44267 0.247999 10.616 0.418666 11.832 0.759998C13.0693 1.08 13.8373 1.24 14.136 1.24C14.4347 1.24 14.7013 1.02667 14.936 0.599998H15.288L15.512 7.064H15C13.976 5.208 12.8987 3.72533 11.768 2.616C10.6587 1.48533 9.44267 0.919998 8.12 0.919998C6.81867 0.919998 5.80533 1.22933 5.08 1.848C4.35467 2.44533 3.992 3.256 3.992 4.28C3.992 5.28267 4.41867 6.06133 5.272 6.616C6.14667 7.14933 7.21333 7.58667 8.472 7.928C9.73067 8.26933 10.552 8.504 10.936 8.632C11.3413 8.76 11.832 8.94133 12.408 9.176C13.0053 9.38933 13.4853 9.624 13.848 9.88C14.232 10.1147 14.6267 10.424 15.032 10.808C15.4587 11.1707 15.7893 11.576 16.024 12.024C16.6 13.048 16.888 14.264 16.888 15.672C16.888 17.976 16.1627 19.832 14.712 21.24C13.2827 22.6267 11.3947 23.32 9.048 23.32C7.832 23.32 6.43467 23.16 4.856 22.84C3.29867 22.52 2.43467 22.36 2.264 22.36C1.96533 22.36 1.67733 22.68 1.4 23.32H0.952L0.632 15.704H1.176C2.11467 17.56 3.30933 19.1813 4.76 20.568C6.232 21.9547 7.77867 22.648 9.4 22.648ZM18.8595 0.599998H28.8435V1.208H26.9875V11.128H33.3555V1.208H31.4675V0.599998H41.4835V1.208H39.5955V22.392H41.4835V23H31.4675V22.392H33.3555V11.96H26.9875V22.392H28.8435V23H18.8595V22.392H20.7475V1.208H18.8595V0.599998ZM58.1883 13.112V10.744C58.1883 6.84 57.9963 4.376 57.6123 3.352C57.1856 2.17867 56.5776 1.45333 55.7883 1.176C55.3403 1.00533 54.7963 0.919998 54.1563 0.919998C53.5163 0.919998 52.9616 1.00533 52.4923 1.176C52.0443 1.34667 51.6709 1.64533 51.3723 2.072C51.0736 2.49867 50.8283 2.94667 50.6363 3.416C50.4656 3.88533 50.3269 4.54667 50.2203 5.4C50.0923 6.63733 50.0283 8.46133 50.0283 10.872V13.176C50.0283 15.7787 50.1243 17.6347 50.3163 18.744C50.5296 19.832 50.7856 20.6107 51.0843 21.08C51.7456 22.1253 52.7696 22.648 54.1563 22.648C55.8416 22.648 56.9296 21.944 57.4203 20.536C57.9323 19.1067 58.1883 16.632 58.1883 13.112ZM54.0923 23.32C50.5296 23.32 47.8629 22.36 46.0923 20.44C44.3429 18.4987 43.4683 15.704 43.4683 12.056C43.4683 8.38667 44.4069 5.50667 46.2843 3.416C48.1829 1.304 50.8603 0.247999 54.3163 0.247999C57.7723 0.247999 60.3749 1.25067 62.1243 3.256C63.8949 5.24 64.7803 8.06667 64.7803 11.736C64.7803 15.4053 63.8843 18.2533 62.0923 20.28C60.3216 22.3067 57.6549 23.32 54.0923 23.32ZM66.5738 0.599998H75.9818C79.2031 0.599998 81.6031 1.06933 83.1818 2.008C84.7604 2.92533 85.5498 4.57867 85.5498 6.968C85.5498 9.61333 84.5898 11.4373 82.6698 12.44C80.8778 13.3573 78.3711 13.816 75.1498 13.816H74.8938V22.392H78.8938V23H66.5738V22.392H68.6538V1.208H66.5738V0.599998ZM74.8938 1.208V13.208H75.5658C76.8458 13.208 77.7311 12.7707 78.2218 11.896C78.7124 11.0213 78.9578 9.60267 78.9578 7.64V6.104C78.9578 4.29067 78.7231 3.02133 78.2538 2.296C77.8058 1.57067 76.9738 1.208 75.7578 1.208H74.8938ZM87.0358 23.32C86.1184 23.32 85.4251 23.0533 84.9557 22.52C84.5078 21.9653 84.2838 21.304 84.2838 20.536C84.2838 19.7467 84.5184 19.0853 84.9878 18.552C85.4784 18.0187 86.1611 17.752 87.0358 17.752C87.9104 17.752 88.6038 17.976 89.1158 18.424C89.6278 18.872 89.8838 19.544 89.8838 20.44C89.8838 21.336 89.6384 22.04 89.1478 22.552C88.6784 23.064 87.9744 23.32 87.0358 23.32ZM104.113 0.887999C100.806 0.887999 99.1525 4.07733 99.1525 10.456V12.984C99.1525 16.0133 99.5898 18.392 100.465 20.12C101.339 21.8267 102.63 22.68 104.337 22.68C106.683 22.68 108.838 20.3973 110.801 15.832H111.377L111.153 22.968H110.801C110.673 22.7333 110.555 22.5733 110.449 22.488C110.342 22.3813 110.182 22.328 109.969 22.328C109.777 22.328 109.009 22.4987 107.665 22.84C106.321 23.16 104.955 23.32 103.569 23.32C100.091 23.32 97.3925 22.3813 95.4725 20.504C93.5738 18.6267 92.6245 15.8107 92.6245 12.056C92.6245 8.28 93.6165 5.368 95.6005 3.32C97.6058 1.272 100.294 0.247999 103.665 0.247999C104.966 0.247999 106.235 0.418666 107.472 0.759998C108.731 1.08 109.467 1.24 109.681 1.24C109.894 1.24 110.054 1.19733 110.161 1.112C110.267 1.00533 110.385 0.834666 110.513 0.599998H110.865L111.121 7.544H110.545C109.585 5.38933 108.593 3.74667 107.569 2.616C106.566 1.464 105.414 0.887999 104.113 0.887999ZM128.47 13.112V10.744C128.47 6.84 128.278 4.376 127.894 3.352C127.467 2.17867 126.859 1.45333 126.07 1.176C125.622 1.00533 125.078 0.919998 124.438 0.919998C123.798 0.919998 123.243 1.00533 122.774 1.176C122.326 1.34667 121.952 1.64533 121.654 2.072C121.355 2.49867 121.11 2.94667 120.918 3.416C120.747 3.88533 120.608 4.54667 120.502 5.4C120.374 6.63733 120.31 8.46133 120.31 10.872V13.176C120.31 15.7787 120.406 17.6347 120.598 18.744C120.811 19.832 121.067 20.6107 121.366 21.08C122.027 22.1253 123.051 22.648 124.438 22.648C126.123 22.648 127.211 21.944 127.702 20.536C128.214 19.1067 128.47 16.632 128.47 13.112ZM124.374 23.32C120.811 23.32 118.144 22.36 116.374 20.44C114.624 18.4987 113.75 15.704 113.75 12.056C113.75 8.38667 114.688 5.50667 116.566 3.416C118.464 1.304 121.142 0.247999 124.598 0.247999C128.054 0.247999 130.656 1.25067 132.406 3.256C134.176 5.24 135.062 8.06667 135.062 11.736C135.062 15.4053 134.166 18.2533 132.374 20.28C130.603 22.3067 127.936 23.32 124.374 23.32Z" fill="black"/>
</svg>
