<svg width="51" height="22" viewBox="0 0 51 22" fill="none" xmlns="http://www.w3.org/2000/svg">
<path d="M4.65938 5.025L4.33437 6H2C0.896875 6 0 6.89687 0 8V16C0 17.1031 0.896875 18 2 18H14C15.1031 18 16 17.1031 16 16V8C16 6.89687 15.1031 6 14 6H11.6656L11.3406 5.025C11.1375 4.4125 10.5656 4 9.91875 4H6.08125C5.43438 4 4.8625 4.4125 4.65938 5.025ZM8 9C8.79565 9 9.55871 9.31607 10.1213 9.87868C10.6839 10.4413 11 11.2044 11 12C11 12.7956 10.6839 13.5587 10.1213 14.1213C9.55871 14.6839 8.79565 15 8 15C7.20435 15 6.44129 14.6839 5.87868 14.1213C5.31607 13.5587 5 12.7956 5 12C5 11.2044 5.31607 10.4413 5.87868 9.87868C6.44129 9.31607 7.20435 9 8 9Z" fill="#909090"/>
<line x1="28.25" x2="28.25" y2="22" stroke="#909090" stroke-width="0.5"/>
<path d="M45.5 3C43.8438 3 42.5 4.34375 42.5 6V11C42.5 12.6562 43.8438 14 45.5 14C47.1562 14 48.5 12.6562 48.5 11V6C48.5 4.34375 47.1562 3 45.5 3ZM41.5 9.75C41.5 9.33437 41.1656 9 40.75 9C40.3344 9 40 9.33437 40 9.75V11C40 13.7844 42.0687 16.0844 44.75 16.45V17.5H43.25C42.8344 17.5 42.5 17.8344 42.5 18.25C42.5 18.6656 42.8344 19 43.25 19H45.5H47.75C48.1656 19 48.5 18.6656 48.5 18.25C48.5 17.8344 48.1656 17.5 47.75 17.5H46.25V16.45C48.9312 16.0844 51 13.7844 51 11V9.75C51 9.33437 50.6656 9 50.25 9C49.8344 9 49.5 9.33437 49.5 9.75V11C49.5 13.2094 47.7094 15 45.5 15C43.2906 15 41.5 13.2094 41.5 11V9.75Z" fill="#909090"/>
</svg>
