<svg width="91" height="65" viewBox="0 0 91 65" fill="none" xmlns="http://www.w3.org/2000/svg">
<g clip-path="url(#clip0_1_400)">
<path d="M45.9664 0C46.2264 0 46.4863 0.0565088 46.7236 0.163875L57.3643 4.67893C58.6074 5.20446 59.5342 6.4307 59.5285 7.91123C59.5003 13.5169 57.1947 23.7732 47.4583 28.4352C46.5146 28.8873 45.4183 28.8873 44.4746 28.4352C34.7381 23.7732 32.4326 13.5169 32.4043 7.91123C32.3987 6.4307 33.3254 5.20446 34.5686 4.67893L45.2149 0.163875C45.4465 0.0565088 45.7065 0 45.9664 0ZM45.9664 3.77479V25.1351C53.7646 21.3603 55.8611 13.0027 55.912 7.99034L45.9664 3.77479Z" fill="black"/>
</g>
<path d="M4.382 49.228C5.40867 49.228 6.30933 49.4287 7.084 49.83C7.868 50.2313 8.47 50.8053 8.89 51.552C9.31933 52.2893 9.534 53.148 9.534 54.128C9.534 55.108 9.31933 55.9667 8.89 56.704C8.47 57.432 7.868 57.9967 7.084 58.398C6.30933 58.7993 5.40867 59 4.382 59H0.966V49.228H4.382ZM4.312 57.334C5.33867 57.334 6.132 57.054 6.692 56.494C7.252 55.934 7.532 55.1453 7.532 54.128C7.532 53.1107 7.252 52.3173 6.692 51.748C6.132 51.1693 5.33867 50.88 4.312 50.88H2.926V57.334H4.312ZM10.4972 55.094C10.4972 54.31 10.6512 53.6147 10.9592 53.008C11.2765 52.4013 11.7012 51.9347 12.2332 51.608C12.7745 51.2813 13.3765 51.118 14.0392 51.118C14.6178 51.118 15.1218 51.2347 15.5512 51.468C15.9898 51.7013 16.3398 51.9953 16.6012 52.35V51.244H18.5752V59H16.6012V57.866C16.3492 58.23 15.9992 58.5333 15.5512 58.776C15.1125 59.0093 14.6038 59.126 14.0252 59.126C13.3718 59.126 12.7745 58.958 12.2332 58.622C11.7012 58.286 11.2765 57.8147 10.9592 57.208C10.6512 56.592 10.4972 55.8873 10.4972 55.094ZM16.6012 55.122C16.6012 54.646 16.5078 54.24 16.3212 53.904C16.1345 53.5587 15.8825 53.2973 15.5652 53.12C15.2478 52.9333 14.9072 52.84 14.5432 52.84C14.1792 52.84 13.8432 52.9287 13.5352 53.106C13.2272 53.2833 12.9752 53.5447 12.7792 53.89C12.5925 54.226 12.4992 54.6273 12.4992 55.094C12.4992 55.5607 12.5925 55.9713 12.7792 56.326C12.9752 56.6713 13.2272 56.9373 13.5352 57.124C13.8525 57.3107 14.1885 57.404 14.5432 57.404C14.9072 57.404 15.2478 57.3153 15.5652 57.138C15.8825 56.9513 16.1345 56.69 16.3212 56.354C16.5078 56.0087 16.6012 55.598 16.6012 55.122ZM22.7714 52.854V56.606C22.7714 56.8673 22.8321 57.0587 22.9534 57.18C23.0841 57.292 23.2988 57.348 23.5974 57.348H24.5074V59H23.2754C21.6234 59 20.7974 58.1973 20.7974 56.592V52.854H19.8734V51.244H20.7974V49.326H22.7714V51.244H24.5074V52.854H22.7714ZM25.4132 55.094C25.4132 54.31 25.5672 53.6147 25.8752 53.008C26.1925 52.4013 26.6172 51.9347 27.1492 51.608C27.6905 51.2813 28.2925 51.118 28.9552 51.118C29.5338 51.118 30.0378 51.2347 30.4672 51.468C30.9058 51.7013 31.2558 51.9953 31.5172 52.35V51.244H33.4912V59H31.5172V57.866C31.2652 58.23 30.9152 58.5333 30.4672 58.776C30.0285 59.0093 29.5198 59.126 28.9412 59.126C28.2878 59.126 27.6905 58.958 27.1492 58.622C26.6172 58.286 26.1925 57.8147 25.8752 57.208C25.5672 56.592 25.4132 55.8873 25.4132 55.094ZM31.5172 55.122C31.5172 54.646 31.4238 54.24 31.2372 53.904C31.0505 53.5587 30.7985 53.2973 30.4812 53.12C30.1638 52.9333 29.8232 52.84 29.4592 52.84C29.0952 52.84 28.7592 52.9287 28.4512 53.106C28.1432 53.2833 27.8912 53.5447 27.6952 53.89C27.5085 54.226 27.4152 54.6273 27.4152 55.094C27.4152 55.5607 27.5085 55.9713 27.6952 56.326C27.8912 56.6713 28.1432 56.9373 28.4512 57.124C28.7685 57.3107 29.1045 57.404 29.4592 57.404C29.8232 57.404 30.1638 57.3153 30.4812 57.138C30.7985 56.9513 31.0505 56.69 31.2372 56.354C31.4238 56.0087 31.5172 55.598 31.5172 55.122ZM45.8674 52.252C45.8674 52.7747 45.7414 53.2647 45.4894 53.722C45.2467 54.1793 44.8594 54.548 44.3274 54.828C43.8047 55.108 43.1421 55.248 42.3394 55.248H40.7014V59H38.7414V49.228H42.3394C43.0954 49.228 43.7394 49.3587 44.2714 49.62C44.8034 49.8813 45.2001 50.2407 45.4614 50.698C45.7321 51.1553 45.8674 51.6733 45.8674 52.252ZM42.2554 53.666C42.7967 53.666 43.1981 53.5447 43.4594 53.302C43.7207 53.05 43.8514 52.7 43.8514 52.252C43.8514 51.3 43.3194 50.824 42.2554 50.824H40.7014V53.666H42.2554ZM49.219 52.448C49.471 52.0373 49.7976 51.7153 50.199 51.482C50.6096 51.2487 51.0763 51.132 51.599 51.132V53.19H51.081C50.465 53.19 49.9983 53.3347 49.681 53.624C49.373 53.9133 49.219 54.4173 49.219 55.136V59H47.259V51.244H49.219V52.448ZM53.9131 50.32C53.5678 50.32 53.2785 50.2127 53.0451 49.998C52.8211 49.774 52.7091 49.4987 52.7091 49.172C52.7091 48.8453 52.8211 48.5747 53.0451 48.36C53.2785 48.136 53.5678 48.024 53.9131 48.024C54.2585 48.024 54.5431 48.136 54.7671 48.36C55.0005 48.5747 55.1171 48.8453 55.1171 49.172C55.1171 49.4987 55.0005 49.774 54.7671 49.998C54.5431 50.2127 54.2585 50.32 53.9131 50.32ZM54.8791 51.244V59H52.9191V51.244H54.8791ZM60.0496 57.194L62.0096 51.244H64.0956L61.2256 59H58.8456L55.9896 51.244H58.0896L60.0496 57.194ZM64.6925 55.094C64.6925 54.31 64.8465 53.6147 65.1545 53.008C65.4718 52.4013 65.8965 51.9347 66.4285 51.608C66.9698 51.2813 67.5718 51.118 68.2345 51.118C68.8131 51.118 69.3171 51.2347 69.7465 51.468C70.1851 51.7013 70.5351 51.9953 70.7965 52.35V51.244H72.7705V59H70.7965V57.866C70.5445 58.23 70.1945 58.5333 69.7465 58.776C69.3078 59.0093 68.7991 59.126 68.2205 59.126C67.5671 59.126 66.9698 58.958 66.4285 58.622C65.8965 58.286 65.4718 57.8147 65.1545 57.208C64.8465 56.592 64.6925 55.8873 64.6925 55.094ZM70.7965 55.122C70.7965 54.646 70.7031 54.24 70.5165 53.904C70.3298 53.5587 70.0778 53.2973 69.7605 53.12C69.4431 52.9333 69.1025 52.84 68.7385 52.84C68.3745 52.84 68.0385 52.9287 67.7305 53.106C67.4225 53.2833 67.1705 53.5447 66.9745 53.89C66.7878 54.226 66.6945 54.6273 66.6945 55.094C66.6945 55.5607 66.7878 55.9713 66.9745 56.326C67.1705 56.6713 67.4225 56.9373 67.7305 57.124C68.0478 57.3107 68.3838 57.404 68.7385 57.404C69.1025 57.404 69.4431 57.3153 69.7605 57.138C70.0778 56.9513 70.3298 56.69 70.5165 56.354C70.7031 56.0087 70.7965 55.598 70.7965 55.122ZM74.1807 55.122C74.1807 54.3193 74.3441 53.6193 74.6708 53.022C74.9974 52.4153 75.4501 51.9487 76.0288 51.622C76.6074 51.286 77.2701 51.118 78.0168 51.118C78.9781 51.118 79.7714 51.3607 80.3968 51.846C81.0314 52.322 81.4561 52.994 81.6708 53.862H79.5568C79.4448 53.526 79.2534 53.2647 78.9828 53.078C78.7214 52.882 78.3948 52.784 78.0028 52.784C77.4428 52.784 76.9994 52.9893 76.6728 53.4C76.3461 53.8013 76.1828 54.3753 76.1828 55.122C76.1828 55.8593 76.3461 56.4333 76.6728 56.844C76.9994 57.2453 77.4428 57.446 78.0028 57.446C78.7961 57.446 79.3141 57.0913 79.5568 56.382H81.6708C81.4561 57.222 81.0314 57.8893 80.3968 58.384C79.7621 58.8787 78.9688 59.126 78.0168 59.126C77.2701 59.126 76.6074 58.9627 76.0288 58.636C75.4501 58.3 74.9974 57.8333 74.6708 57.236C74.3441 56.6293 74.1807 55.9247 74.1807 55.122ZM90.5266 51.244L85.7246 62.668H83.6386L85.3186 58.804L82.2106 51.244H84.4086L86.4106 56.662L88.4406 51.244H90.5266Z" fill="black"/>
<defs>
<clipPath id="clip0_1_400">
<rect width="28" height="28" fill="white" transform="translate(31.5)"/>
</clipPath>
</defs>
</svg>
