<svg width="100" height="24" viewBox="0 0 100 24" fill="none" xmlns="http://www.w3.org/2000/svg">
<path d="M0.672 0.599998H17.312L17.632 6.936H17.056C16.16 4.78133 15.2213 3.30933 14.24 2.52C13.2587 1.70933 11.8187 1.304 9.92 1.304H8.8V11.192H9.888C10.8907 11.192 11.7333 10.8187 12.416 10.072C13.0987 9.304 13.5787 8.28 13.856 7H14.336V16.472H13.792C13.408 14.872 12.8853 13.7307 12.224 13.048C11.584 12.3653 10.6987 12.024 9.568 12.024H8.8V22.296H10.016C11.9787 22.296 13.6427 21.7093 15.008 20.536C16.3947 19.3627 17.344 17.8587 17.856 16.024H18.496L18.24 23H0.672V22.296H2.56V1.304H0.672V0.599998ZM24.1608 23.32C23.2434 23.32 22.5501 23.0533 22.0807 22.52C21.6328 21.9653 21.4088 21.304 21.4088 20.536C21.4088 19.7467 21.6434 19.0853 22.1128 18.552C22.6034 18.0187 23.2861 17.752 24.1608 17.752C25.0354 17.752 25.7288 17.976 26.2408 18.424C26.7528 18.872 27.0088 19.544 27.0088 20.44C27.0088 21.336 26.7634 22.04 26.2728 22.552C25.8034 23.064 25.0994 23.32 24.1608 23.32ZM41.2375 0.887999C37.9308 0.887999 36.2775 4.07733 36.2775 10.456V12.984C36.2775 16.0133 36.7148 18.392 37.5895 20.12C38.4642 21.8267 39.7548 22.68 41.4615 22.68C43.8082 22.68 45.9628 20.3973 47.9255 15.832H48.5015L48.2775 22.968H47.9255C47.7975 22.7333 47.6802 22.5733 47.5735 22.488C47.4668 22.3813 47.3068 22.328 47.0935 22.328C46.9015 22.328 46.1335 22.4987 44.7895 22.84C43.4455 23.16 42.0802 23.32 40.6935 23.32C37.2162 23.32 34.5175 22.3813 32.5975 20.504C30.6988 18.6267 29.7495 15.8107 29.7495 12.056C29.7495 8.28 30.7415 5.368 32.7255 3.32C34.7308 1.272 37.4188 0.247999 40.7895 0.247999C42.0908 0.247999 43.3602 0.418666 44.5975 0.759998C45.8562 1.08 46.5922 1.24 46.8055 1.24C47.0188 1.24 47.1788 1.19733 47.2855 1.112C47.3922 1.00533 47.5095 0.834666 47.6375 0.599998H47.9895L48.2455 7.544H47.6695C46.7095 5.38933 45.7175 3.74667 44.6935 2.616C43.6908 1.464 42.5388 0.887999 41.2375 0.887999ZM65.5945 13.112V10.744C65.5945 6.84 65.4025 4.376 65.0185 3.352C64.5918 2.17867 63.9838 1.45333 63.1945 1.176C62.7465 1.00533 62.2025 0.919998 61.5625 0.919998C60.9225 0.919998 60.3678 1.00533 59.8985 1.176C59.4505 1.34667 59.0772 1.64533 58.7785 2.072C58.4798 2.49867 58.2345 2.94667 58.0425 3.416C57.8718 3.88533 57.7332 4.54667 57.6265 5.4C57.4985 6.63733 57.4345 8.46133 57.4345 10.872V13.176C57.4345 15.7787 57.5305 17.6347 57.7225 18.744C57.9358 19.832 58.1918 20.6107 58.4905 21.08C59.1518 22.1253 60.1758 22.648 61.5625 22.648C63.2478 22.648 64.3358 21.944 64.8265 20.536C65.3385 19.1067 65.5945 16.632 65.5945 13.112ZM61.4985 23.32C57.9358 23.32 55.2692 22.36 53.4985 20.44C51.7492 18.4987 50.8745 15.704 50.8745 12.056C50.8745 8.38667 51.8132 5.50667 53.6905 3.416C55.5892 1.304 58.2665 0.247999 61.7225 0.247999C65.1785 0.247999 67.7812 1.25067 69.5305 3.256C71.3012 5.24 72.1865 8.06667 72.1865 11.736C72.1865 15.4053 71.2905 18.2533 69.4985 20.28C67.7278 22.3067 65.0612 23.32 61.4985 23.32ZM91.036 0.599998H99.58V1.208H97.82V22.392H99.58V23H89.82V22.392H91.58V2.392H91.452L86.652 23H82.652L77.02 2.296H76.892V22.392H78.652V23H74.3V22.392H76.06V1.208H74.3V0.599998H82.94L87.196 17.08L91.036 0.599998Z" fill="white"/>
</svg>
