<svg width="92" height="65" viewBox="0 0 92 65" fill="none" xmlns="http://www.w3.org/2000/svg">
<g clip-path="url(#clip0_1_398)">
<path d="M31.2124 0C29.7149 0 28.5 1.21494 28.5 2.71242V20.7952C28.5 22.2927 29.7149 23.5077 31.2124 23.5077H32.1166C32.1166 26.5026 34.5464 28.9325 37.5414 28.9325C40.5364 28.9325 42.9662 26.5026 42.9662 23.5077H50.1994C50.1994 26.5026 52.6292 28.9325 55.6242 28.9325C58.6192 28.9325 61.0491 26.5026 61.0491 23.5077H62.8573C63.8575 23.5077 64.6656 22.6996 64.6656 21.6994C64.6656 20.6992 63.8575 19.8911 62.8573 19.8911V16.2745V14.4662V13.4095C62.8573 12.4489 62.4787 11.5278 61.8006 10.8497L57.4325 6.48156C56.7544 5.80345 55.8333 5.42484 54.8726 5.42484H52.0077V2.71242C52.0077 1.21494 50.7927 0 49.2952 0H31.2124ZM52.0077 9.0414H54.8726L59.2408 13.4095V14.4662H52.0077V9.0414ZM34.829 23.5077C34.829 22.7883 35.1148 22.0984 35.6234 21.5897C36.1321 21.081 36.822 20.7952 37.5414 20.7952C38.2608 20.7952 38.9507 21.081 39.4594 21.5897C39.9681 22.0984 40.2538 22.7883 40.2538 23.5077C40.2538 24.227 39.9681 24.9169 39.4594 25.4256C38.9507 25.9343 38.2608 26.2201 37.5414 26.2201C36.822 26.2201 36.1321 25.9343 35.6234 25.4256C35.1148 24.9169 34.829 24.227 34.829 23.5077ZM55.6242 20.7952C56.3436 20.7952 57.0335 21.081 57.5422 21.5897C58.0509 22.0984 58.3366 22.7883 58.3366 23.5077C58.3366 24.227 58.0509 24.9169 57.5422 25.4256C57.0335 25.9343 56.3436 26.2201 55.6242 26.2201C54.9048 26.2201 54.2149 25.9343 53.7062 25.4256C53.1976 24.9169 52.9118 24.227 52.9118 23.5077C52.9118 22.7883 53.1976 22.0984 53.7062 21.5897C54.2149 21.081 54.9048 20.7952 55.6242 20.7952Z" fill="black"/>
</g>
<path d="M7.5 49.228V50.81H3.426V53.316H6.548V54.87H3.426V59H1.466V49.228H7.5ZM8.38583 55.094C8.38583 54.31 8.53983 53.6147 8.84783 53.008C9.16516 52.4013 9.58983 51.9347 10.1218 51.608C10.6632 51.2813 11.2652 51.118 11.9278 51.118C12.5065 51.118 13.0105 51.2347 13.4398 51.468C13.8785 51.7013 14.2285 51.9953 14.4898 52.35V51.244H16.4638V59H14.4898V57.866C14.2378 58.23 13.8878 58.5333 13.4398 58.776C13.0012 59.0093 12.4925 59.126 11.9138 59.126C11.2605 59.126 10.6632 58.958 10.1218 58.622C9.58983 58.286 9.16516 57.8147 8.84783 57.208C8.53983 56.592 8.38583 55.8873 8.38583 55.094ZM14.4898 55.122C14.4898 54.646 14.3965 54.24 14.2098 53.904C14.0232 53.5587 13.7712 53.2973 13.4538 53.12C13.1365 52.9333 12.7958 52.84 12.4318 52.84C12.0678 52.84 11.7318 52.9287 11.4238 53.106C11.1158 53.2833 10.8638 53.5447 10.6678 53.89C10.4812 54.226 10.3878 54.6273 10.3878 55.094C10.3878 55.5607 10.4812 55.9713 10.6678 56.326C10.8638 56.6713 11.1158 56.9373 11.4238 57.124C11.7412 57.3107 12.0772 57.404 12.4318 57.404C12.7958 57.404 13.1365 57.3153 13.4538 57.138C13.7712 56.9513 14.0232 56.69 14.2098 56.354C14.3965 56.0087 14.4898 55.598 14.4898 55.122ZM21.3461 59.126C20.7114 59.126 20.1421 59.014 19.6381 58.79C19.1341 58.5567 18.7328 58.244 18.4341 57.852C18.1448 57.46 17.9861 57.026 17.9581 56.55H19.9321C19.9694 56.8487 20.1141 57.096 20.3661 57.292C20.6274 57.488 20.9494 57.586 21.3321 57.586C21.7054 57.586 21.9948 57.5113 22.2001 57.362C22.4148 57.2127 22.5221 57.0213 22.5221 56.788C22.5221 56.536 22.3914 56.3493 22.1301 56.228C21.8781 56.0973 21.4721 55.9573 20.9121 55.808C20.3334 55.668 19.8574 55.5233 19.4841 55.374C19.1201 55.2247 18.8028 54.996 18.5321 54.688C18.2708 54.38 18.1401 53.9647 18.1401 53.442C18.1401 53.0127 18.2614 52.6207 18.5041 52.266C18.7561 51.9113 19.1108 51.6313 19.5681 51.426C20.0348 51.2207 20.5808 51.118 21.2061 51.118C22.1301 51.118 22.8674 51.3513 23.4181 51.818C23.9688 52.2753 24.2721 52.896 24.3281 53.68H22.4521C22.4241 53.372 22.2934 53.1293 22.0601 52.952C21.8361 52.7653 21.5328 52.672 21.1501 52.672C20.7954 52.672 20.5201 52.7373 20.3241 52.868C20.1374 52.9987 20.0441 53.1807 20.0441 53.414C20.0441 53.6753 20.1748 53.876 20.4361 54.016C20.6974 54.1467 21.1034 54.282 21.6541 54.422C22.2141 54.562 22.6761 54.7067 23.0401 54.856C23.4041 55.0053 23.7168 55.2387 23.9781 55.556C24.2488 55.864 24.3888 56.2747 24.3981 56.788C24.3981 57.236 24.2721 57.6373 24.0201 57.992C23.7774 58.3467 23.4228 58.6267 22.9561 58.832C22.4988 59.028 21.9621 59.126 21.3461 59.126ZM28.289 52.854V56.606C28.289 56.8673 28.3497 57.0587 28.471 57.18C28.6017 57.292 28.8163 57.348 29.115 57.348H30.025V59H28.793C27.141 59 26.315 58.1973 26.315 56.592V52.854H25.391V51.244H26.315V49.326H28.289V51.244H30.025V52.854H28.289ZM38.1867 49.228C39.2134 49.228 40.114 49.4287 40.8887 49.83C41.6727 50.2313 42.2747 50.8053 42.6947 51.552C43.124 52.2893 43.3387 53.148 43.3387 54.128C43.3387 55.108 43.124 55.9667 42.6947 56.704C42.2747 57.432 41.6727 57.9967 40.8887 58.398C40.114 58.7993 39.2134 59 38.1867 59H34.7707V49.228H38.1867ZM38.1167 57.334C39.1434 57.334 39.9367 57.054 40.4967 56.494C41.0567 55.934 41.3367 55.1453 41.3367 54.128C41.3367 53.1107 41.0567 52.3173 40.4967 51.748C39.9367 51.1693 39.1434 50.88 38.1167 50.88H36.7307V57.334H38.1167ZM52.0158 54.954C52.0158 55.234 51.9972 55.486 51.9598 55.71H46.2898C46.3365 56.27 46.5325 56.7087 46.8778 57.026C47.2232 57.3433 47.6478 57.502 48.1518 57.502C48.8798 57.502 49.3978 57.1893 49.7058 56.564H51.8198C51.5958 57.3107 51.1665 57.9267 50.5318 58.412C49.8972 58.888 49.1178 59.126 48.1938 59.126C47.4472 59.126 46.7752 58.9627 46.1778 58.636C45.5898 58.3 45.1278 57.8287 44.7918 57.222C44.4652 56.6153 44.3018 55.9153 44.3018 55.122C44.3018 54.3193 44.4652 53.6147 44.7918 53.008C45.1185 52.4013 45.5758 51.9347 46.1638 51.608C46.7518 51.2813 47.4285 51.118 48.1938 51.118C48.9312 51.118 49.5892 51.2767 50.1678 51.594C50.7558 51.9113 51.2085 52.364 51.5258 52.952C51.8525 53.5307 52.0158 54.198 52.0158 54.954ZM49.9858 54.394C49.9765 53.89 49.7945 53.4887 49.4398 53.19C49.0852 52.882 48.6512 52.728 48.1378 52.728C47.6525 52.728 47.2418 52.8773 46.9058 53.176C46.5792 53.4653 46.3785 53.8713 46.3038 54.394H49.9858ZM55.4065 48.64V59H53.4465V48.64H55.4065ZM58.337 50.32C57.9916 50.32 57.7023 50.2127 57.469 49.998C57.245 49.774 57.133 49.4987 57.133 49.172C57.133 48.8453 57.245 48.5747 57.469 48.36C57.7023 48.136 57.9916 48.024 58.337 48.024C58.6823 48.024 58.967 48.136 59.191 48.36C59.4243 48.5747 59.541 48.8453 59.541 49.172C59.541 49.4987 59.4243 49.774 59.191 49.998C58.967 50.2127 58.6823 50.32 58.337 50.32ZM59.303 51.244V59H57.343V51.244H59.303ZM64.4734 57.194L66.4334 51.244H68.5194L65.6494 59H63.2694L60.4134 51.244H62.5134L64.4734 57.194ZM76.8303 54.954C76.8303 55.234 76.8116 55.486 76.7743 55.71H71.1043C71.151 56.27 71.347 56.7087 71.6923 57.026C72.0376 57.3433 72.4623 57.502 72.9663 57.502C73.6943 57.502 74.2123 57.1893 74.5203 56.564H76.6343C76.4103 57.3107 75.981 57.9267 75.3463 58.412C74.7116 58.888 73.9323 59.126 73.0083 59.126C72.2616 59.126 71.5896 58.9627 70.9923 58.636C70.4043 58.3 69.9423 57.8287 69.6063 57.222C69.2796 56.6153 69.1163 55.9153 69.1163 55.122C69.1163 54.3193 69.2796 53.6147 69.6063 53.008C69.933 52.4013 70.3903 51.9347 70.9783 51.608C71.5663 51.2813 72.243 51.118 73.0083 51.118C73.7456 51.118 74.4036 51.2767 74.9823 51.594C75.5703 51.9113 76.023 52.364 76.3403 52.952C76.667 53.5307 76.8303 54.198 76.8303 54.954ZM74.8003 54.394C74.791 53.89 74.609 53.4887 74.2543 53.19C73.8996 52.882 73.4656 52.728 72.9523 52.728C72.467 52.728 72.0563 52.8773 71.7203 53.176C71.3936 53.4653 71.193 53.8713 71.1183 54.394H74.8003ZM80.2209 52.448C80.4729 52.0373 80.7996 51.7153 81.2009 51.482C81.6116 51.2487 82.0783 51.132 82.6009 51.132V53.19H82.0829C81.4669 53.19 81.0003 53.3347 80.6829 53.624C80.3749 53.9133 80.2209 54.4173 80.2209 55.136V59H78.2609V51.244H80.2209V52.448ZM91.3411 51.244L86.5391 62.668H84.4531L86.1331 58.804L83.0251 51.244H85.2231L87.2251 56.662L89.2551 51.244H91.3411Z" fill="black"/>
<defs>
<clipPath id="clip0_1_398">
<rect width="35" height="28" fill="white" transform="translate(28.5)"/>
</clipPath>
</defs>
</svg>
