<svg width="108" height="65" viewBox="0 0 108 65" fill="none" xmlns="http://www.w3.org/2000/svg">
<g clip-path="url(#clip0_1_399)">
<path d="M41.6166 1.80823C39.6218 1.80823 38 3.43003 38 5.42479V7.23307H70.5491V5.42479C70.5491 3.43003 68.9273 1.80823 66.9325 1.80823H41.6166ZM70.5491 12.6579H38V23.5076C38 25.5024 39.6218 27.1242 41.6166 27.1242H66.9325C68.9273 27.1242 70.5491 25.5024 70.5491 23.5076V12.6579ZM44.329 19.891H47.9455C48.4428 19.891 48.8497 20.2979 48.8497 20.7952C48.8497 21.2925 48.4428 21.6993 47.9455 21.6993H44.329C43.8317 21.6993 43.4248 21.2925 43.4248 20.7952C43.4248 20.2979 43.8317 19.891 44.329 19.891ZM50.658 20.7952C50.658 20.2979 51.0648 19.891 51.5621 19.891H58.7952C59.2925 19.891 59.6994 20.2979 59.6994 20.7952C59.6994 21.2925 59.2925 21.6993 58.7952 21.6993H51.5621C51.0648 21.6993 50.658 21.2925 50.658 20.7952Z" fill="black"/>
</g>
<path d="M4.59 59.098C3.90867 59.098 3.29267 58.9813 2.742 58.748C2.20067 58.5147 1.77133 58.1787 1.454 57.74C1.13667 57.3013 0.973333 56.7833 0.964 56.186H3.064C3.092 56.5873 3.232 56.9047 3.484 57.138C3.74533 57.3713 4.1 57.488 4.548 57.488C5.00533 57.488 5.36467 57.3807 5.626 57.166C5.88733 56.942 6.018 56.6527 6.018 56.298C6.018 56.0087 5.92933 55.7707 5.752 55.584C5.57467 55.3973 5.35067 55.2527 5.08 55.15C4.81867 55.038 4.45467 54.9167 3.988 54.786C3.35333 54.5993 2.83533 54.4173 2.434 54.24C2.042 54.0533 1.70133 53.778 1.412 53.414C1.132 53.0407 0.992 52.546 0.992 51.93C0.992 51.3513 1.13667 50.8473 1.426 50.418C1.71533 49.9887 2.12133 49.662 2.644 49.438C3.16667 49.2047 3.764 49.088 4.436 49.088C5.444 49.088 6.26067 49.3353 6.886 49.83C7.52067 50.3153 7.87067 50.9967 7.936 51.874H5.78C5.76133 51.538 5.61667 51.2627 5.346 51.048C5.08467 50.824 4.73467 50.712 4.296 50.712C3.91333 50.712 3.60533 50.81 3.372 51.006C3.148 51.202 3.036 51.4867 3.036 51.86C3.036 52.1213 3.12 52.3407 3.288 52.518C3.46533 52.686 3.68 52.826 3.932 52.938C4.19333 53.0407 4.55733 53.162 5.024 53.302C5.65867 53.4887 6.17667 53.6753 6.578 53.862C6.97933 54.0487 7.32467 54.3287 7.614 54.702C7.90333 55.0753 8.048 55.5653 8.048 56.172C8.048 56.6947 7.91267 57.18 7.642 57.628C7.37133 58.076 6.97467 58.4353 6.452 58.706C5.92933 58.9673 5.30867 59.098 4.59 59.098ZM9.24325 55.094C9.24325 54.31 9.39725 53.6147 9.70525 53.008C10.0226 52.4013 10.4473 51.9347 10.9793 51.608C11.5206 51.2813 12.1226 51.118 12.7853 51.118C13.3639 51.118 13.8679 51.2347 14.2973 51.468C14.7359 51.7013 15.0859 51.9953 15.3473 52.35V51.244H17.3213V59H15.3473V57.866C15.0953 58.23 14.7453 58.5333 14.2973 58.776C13.8586 59.0093 13.3499 59.126 12.7713 59.126C12.1179 59.126 11.5206 58.958 10.9793 58.622C10.4473 58.286 10.0226 57.8147 9.70525 57.208C9.39725 56.592 9.24325 55.8873 9.24325 55.094ZM15.3473 55.122C15.3473 54.646 15.2539 54.24 15.0673 53.904C14.8806 53.5587 14.6286 53.2973 14.3113 53.12C13.9939 52.9333 13.6533 52.84 13.2893 52.84C12.9253 52.84 12.5893 52.9287 12.2812 53.106C11.9733 53.2833 11.7213 53.5447 11.5253 53.89C11.3386 54.226 11.2453 54.6273 11.2453 55.094C11.2453 55.5607 11.3386 55.9713 11.5253 56.326C11.7213 56.6713 11.9733 56.9373 12.2812 57.124C12.5986 57.3107 12.9346 57.404 13.2893 57.404C13.6533 57.404 13.9939 57.3153 14.3113 57.138C14.6286 56.9513 14.8806 56.69 15.0673 56.354C15.2539 56.0087 15.3473 55.598 15.3473 55.122ZM22.7915 52.854H21.4335V59H19.4455V52.854H18.5635V51.244H19.4455V50.852C19.4455 49.9 19.7162 49.2 20.2575 48.752C20.7989 48.304 21.6155 48.094 22.7075 48.122V49.774C22.2315 49.7647 21.9002 49.844 21.7135 50.012C21.5269 50.18 21.4335 50.4833 21.4335 50.922V51.244H22.7915V52.854ZM31.2717 54.954C31.2717 55.234 31.253 55.486 31.2157 55.71H25.5457C25.5924 56.27 25.7884 56.7087 26.1337 57.026C26.479 57.3433 26.9037 57.502 27.4077 57.502C28.1357 57.502 28.6537 57.1893 28.9617 56.564H31.0757C30.8517 57.3107 30.4224 57.9267 29.7877 58.412C29.153 58.888 28.3737 59.126 27.4497 59.126C26.703 59.126 26.031 58.9627 25.4337 58.636C24.8457 58.3 24.3837 57.8287 24.0477 57.222C23.721 56.6153 23.5577 55.9153 23.5577 55.122C23.5577 54.3193 23.721 53.6147 24.0477 53.008C24.3744 52.4013 24.8317 51.9347 25.4197 51.608C26.0077 51.2813 26.6844 51.118 27.4497 51.118C28.187 51.118 28.845 51.2767 29.4237 51.594C30.0117 51.9113 30.4644 52.364 30.7817 52.952C31.1084 53.5307 31.2717 54.198 31.2717 54.954ZM29.2417 54.394C29.2324 53.89 29.0504 53.4887 28.6957 53.19C28.341 52.882 27.907 52.728 27.3937 52.728C26.9084 52.728 26.4977 52.8773 26.1617 53.176C25.835 53.4653 25.6344 53.8713 25.5597 54.394H29.2417ZM43.1643 52.252C43.1643 52.7747 43.0383 53.2647 42.7863 53.722C42.5436 54.1793 42.1563 54.548 41.6243 54.828C41.1016 55.108 40.4389 55.248 39.6363 55.248H37.9983V59H36.0383V49.228H39.6363C40.3923 49.228 41.0363 49.3587 41.5683 49.62C42.1003 49.8813 42.4969 50.2407 42.7583 50.698C43.0289 51.1553 43.1643 51.6733 43.1643 52.252ZM39.5523 53.666C40.0936 53.666 40.4949 53.5447 40.7563 53.302C41.0176 53.05 41.1483 52.7 41.1483 52.252C41.1483 51.3 40.6163 50.824 39.5523 50.824H37.9983V53.666H39.5523ZM44.0518 55.094C44.0518 54.31 44.2058 53.6147 44.5138 53.008C44.8312 52.4013 45.2558 51.9347 45.7878 51.608C46.3292 51.2813 46.9312 51.118 47.5938 51.118C48.1725 51.118 48.6765 51.2347 49.1058 51.468C49.5445 51.7013 49.8945 51.9953 50.1558 52.35V51.244H52.1298V59H50.1558V57.866C49.9038 58.23 49.5538 58.5333 49.1058 58.776C48.6672 59.0093 48.1585 59.126 47.5798 59.126C46.9265 59.126 46.3292 58.958 45.7878 58.622C45.2558 58.286 44.8312 57.8147 44.5138 57.208C44.2058 56.592 44.0518 55.8873 44.0518 55.094ZM50.1558 55.122C50.1558 54.646 50.0625 54.24 49.8758 53.904C49.6892 53.5587 49.4372 53.2973 49.1198 53.12C48.8025 52.9333 48.4618 52.84 48.0978 52.84C47.7338 52.84 47.3978 52.9287 47.0898 53.106C46.7818 53.2833 46.5298 53.5447 46.3338 53.89C46.1472 54.226 46.0538 54.6273 46.0538 55.094C46.0538 55.5607 46.1472 55.9713 46.3338 56.326C46.5298 56.6713 46.7818 56.9373 47.0898 57.124C47.4072 57.3107 47.7432 57.404 48.0978 57.404C48.4618 57.404 48.8025 57.3153 49.1198 57.138C49.4372 56.9513 49.6892 56.69 49.8758 56.354C50.0625 56.0087 50.1558 55.598 50.1558 55.122ZM61.4641 51.244L56.6621 62.668H54.5761L56.2561 58.804L53.1481 51.244H55.3461L57.3481 56.662L59.3781 51.244H61.4641ZM72.1527 51.132C73.1047 51.132 73.87 51.426 74.4487 52.014C75.0367 52.5927 75.3307 53.4047 75.3307 54.45V59H73.3707V54.716C73.3707 54.1093 73.2167 53.6473 72.9087 53.33C72.6007 53.0033 72.1807 52.84 71.6487 52.84C71.1167 52.84 70.692 53.0033 70.3747 53.33C70.0667 53.6473 69.9127 54.1093 69.9127 54.716V59H67.9527V54.716C67.9527 54.1093 67.7987 53.6473 67.4907 53.33C67.1827 53.0033 66.7627 52.84 66.2307 52.84C65.6894 52.84 65.26 53.0033 64.9427 53.33C64.6347 53.6473 64.4807 54.1093 64.4807 54.716V59H62.5207V51.244H64.4807V52.182C64.7327 51.8553 65.0547 51.5987 65.4467 51.412C65.848 51.2253 66.2867 51.132 66.7627 51.132C67.3694 51.132 67.9107 51.2627 68.3867 51.524C68.8627 51.776 69.2314 52.14 69.4927 52.616C69.7447 52.168 70.1087 51.8087 70.5847 51.538C71.07 51.2673 71.5927 51.132 72.1527 51.132ZM84.4006 54.954C84.4006 55.234 84.3819 55.486 84.3446 55.71H78.6746C78.7213 56.27 78.9173 56.7087 79.2626 57.026C79.6079 57.3433 80.0326 57.502 80.5366 57.502C81.2646 57.502 81.7826 57.1893 82.0906 56.564H84.2046C83.9806 57.3107 83.5513 57.9267 82.9166 58.412C82.2819 58.888 81.5026 59.126 80.5786 59.126C79.8319 59.126 79.1599 58.9627 78.5626 58.636C77.9746 58.3 77.5126 57.8287 77.1766 57.222C76.8499 56.6153 76.6866 55.9153 76.6866 55.122C76.6866 54.3193 76.8499 53.6147 77.1766 53.008C77.5033 52.4013 77.9606 51.9347 78.5486 51.608C79.1366 51.2813 79.8133 51.118 80.5786 51.118C81.3159 51.118 81.9739 51.2767 82.5526 51.594C83.1406 51.9113 83.5933 52.364 83.9106 52.952C84.2373 53.5307 84.4006 54.198 84.4006 54.954ZM82.3706 54.394C82.3613 53.89 82.1793 53.4887 81.8246 53.19C81.4699 52.882 81.0359 52.728 80.5226 52.728C80.0373 52.728 79.6266 52.8773 79.2906 53.176C78.9639 53.4653 78.7633 53.8713 78.6886 54.394H82.3706ZM90.1292 51.132C91.0532 51.132 91.7999 51.426 92.3692 52.014C92.9386 52.5927 93.2232 53.4047 93.2232 54.45V59H91.2632V54.716C91.2632 54.1 91.1092 53.6287 90.8012 53.302C90.4932 52.966 90.0732 52.798 89.5412 52.798C88.9999 52.798 88.5706 52.966 88.2532 53.302C87.9452 53.6287 87.7912 54.1 87.7912 54.716V59H85.8312V51.244H87.7912V52.21C88.0526 51.874 88.3839 51.6127 88.7852 51.426C89.1959 51.23 89.6439 51.132 90.1292 51.132ZM97.3691 52.854V56.606C97.3691 56.8673 97.4298 57.0587 97.5511 57.18C97.6818 57.292 97.8964 57.348 98.1951 57.348H99.1051V59H97.8731C96.2211 59 95.3951 58.1973 95.3951 56.592V52.854H94.4711V51.244H95.3951V49.326H97.3691V51.244H99.1051V52.854H97.3691ZM103.483 59.126C102.848 59.126 102.279 59.014 101.775 58.79C101.271 58.5567 100.869 58.244 100.571 57.852C100.281 57.46 100.123 57.026 100.095 56.55H102.069C102.106 56.8487 102.251 57.096 102.503 57.292C102.764 57.488 103.086 57.586 103.469 57.586C103.842 57.586 104.131 57.5113 104.337 57.362C104.551 57.2127 104.659 57.0213 104.659 56.788C104.659 56.536 104.528 56.3493 104.267 56.228C104.015 56.0973 103.609 55.9573 103.049 55.808C102.47 55.668 101.994 55.5233 101.621 55.374C101.257 55.2247 100.939 54.996 100.669 54.688C100.407 54.38 100.277 53.9647 100.277 53.442C100.277 53.0127 100.398 52.6207 100.641 52.266C100.893 51.9113 101.247 51.6313 101.705 51.426C102.171 51.2207 102.717 51.118 103.343 51.118C104.267 51.118 105.004 51.3513 105.555 51.818C106.105 52.2753 106.409 52.896 106.465 53.68H104.589C104.561 53.372 104.43 53.1293 104.197 52.952C103.973 52.7653 103.669 52.672 103.287 52.672C102.932 52.672 102.657 52.7373 102.461 52.868C102.274 52.9987 102.181 53.1807 102.181 53.414C102.181 53.6753 102.311 53.876 102.573 54.016C102.834 54.1467 103.24 54.282 103.791 54.422C104.351 54.562 104.813 54.7067 105.177 54.856C105.541 55.0053 105.853 55.2387 106.115 55.556C106.385 55.864 106.525 56.2747 106.535 56.788C106.535 57.236 106.409 57.6373 106.157 57.992C105.914 58.3467 105.559 58.6267 105.093 58.832C104.635 59.028 104.099 59.126 103.483 59.126Z" fill="black"/>
<defs>
<clipPath id="clip0_1_399">
<rect width="31.5" height="28" fill="white" transform="translate(38)"/>
</clipPath>
</defs>
</svg>
