<svg width="117" height="65" viewBox="0 0 117 65" fill="none" xmlns="http://www.w3.org/2000/svg">
<g clip-path="url(#clip0_1_402)">
<path d="M59.0416 0C60.0418 0 60.8498 0.808075 60.8498 1.80828V3.82564C60.9403 3.83695 61.025 3.84825 61.1154 3.8652C61.138 3.87085 61.155 3.87085 61.1776 3.8765L63.89 4.37378C64.8733 4.55461 65.5231 5.4983 65.3423 6.47591C65.1615 7.45351 64.2178 8.10901 63.2402 7.92818L60.556 7.43656C58.7873 7.17662 57.2276 7.35179 56.1314 7.78691C55.0351 8.22203 54.5943 8.82102 54.4926 9.37481C54.3796 9.97945 54.4643 10.3185 54.5604 10.5276C54.6621 10.748 54.8712 10.9966 55.2837 11.2735C56.2048 11.8781 57.6175 12.2737 59.4484 12.7597L59.6123 12.8049C61.2284 13.2344 63.2063 13.7542 64.6755 14.7149C65.4779 15.2404 66.2351 15.9524 66.7041 16.947C67.1845 17.9585 67.2862 19.0887 67.0658 20.2923C66.6759 22.4396 65.1954 23.875 63.3588 24.6265C62.5847 24.943 61.7427 25.1464 60.8498 25.2481V27.1242C60.8498 28.1244 60.0418 28.9325 59.0416 28.9325C58.0414 28.9325 57.2333 28.1244 57.2333 27.1242V25.1521C57.2107 25.1464 57.1824 25.1464 57.1598 25.1408H57.1485C55.7697 24.926 53.5037 24.3327 51.978 23.6546C51.0682 23.2477 50.6557 22.1797 51.0625 21.2699C51.4694 20.3601 52.5374 19.9476 53.4472 20.3545C54.6282 20.88 56.5721 21.3999 57.6966 21.5751C59.4993 21.8406 60.9855 21.6881 61.9913 21.2756C62.9463 20.8856 63.3814 20.3206 63.5058 19.6425C63.6131 19.0435 63.5284 18.6988 63.4323 18.4897C63.3249 18.2636 63.1158 18.015 62.6977 17.7381C61.7709 17.1335 60.3526 16.7379 58.516 16.2519L58.3578 16.2124C56.7473 15.7829 54.7695 15.2574 53.3003 14.2967C52.4978 13.7712 51.7463 13.0535 51.2773 12.059C50.8026 11.0475 50.7065 9.91729 50.9325 8.71365C51.3394 6.55502 52.9556 5.1536 54.7921 4.42464C55.5437 4.12514 56.3687 3.92171 57.2333 3.80304V1.80828C57.2333 0.808075 58.0414 0 59.0416 0Z" fill="black"/>
</g>
<path d="M10.494 49.228L6.91 59H4.53L0.946 49.228H3.046L5.734 56.998L8.408 49.228H10.494ZM11.1651 55.094C11.1651 54.31 11.3191 53.6147 11.6271 53.008C11.9445 52.4013 12.3691 51.9347 12.9011 51.608C13.4425 51.2813 14.0445 51.118 14.7071 51.118C15.2858 51.118 15.7898 51.2347 16.2191 51.468C16.6578 51.7013 17.0078 51.9953 17.2691 52.35V51.244H19.2431V59H17.2691V57.866C17.0171 58.23 16.6671 58.5333 16.2191 58.776C15.7805 59.0093 15.2718 59.126 14.6931 59.126C14.0398 59.126 13.4425 58.958 12.9011 58.622C12.3691 58.286 11.9445 57.8147 11.6271 57.208C11.3191 56.592 11.1651 55.8873 11.1651 55.094ZM17.2691 55.122C17.2691 54.646 17.1758 54.24 16.9891 53.904C16.8025 53.5587 16.5505 53.2973 16.2331 53.12C15.9158 52.9333 15.5751 52.84 15.2111 52.84C14.8471 52.84 14.5111 52.9287 14.2031 53.106C13.8951 53.2833 13.6431 53.5447 13.4471 53.89C13.2605 54.226 13.1671 54.6273 13.1671 55.094C13.1671 55.5607 13.2605 55.9713 13.4471 56.326C13.6431 56.6713 13.8951 56.9373 14.2031 57.124C14.5205 57.3107 14.8565 57.404 15.2111 57.404C15.5751 57.404 15.9158 57.3153 16.2331 57.138C16.5505 56.9513 16.8025 56.69 16.9891 56.354C17.1758 56.0087 17.2691 55.598 17.2691 55.122ZM23.1174 48.64V59H21.1574V48.64H23.1174ZM32.3759 51.244V59H30.4019V58.02C30.1499 58.356 29.8186 58.622 29.4079 58.818C29.0066 59.0047 28.5679 59.098 28.0919 59.098C27.4852 59.098 26.9486 58.972 26.4819 58.72C26.0152 58.4587 25.6466 58.0807 25.3759 57.586C25.1146 57.082 24.9839 56.4847 24.9839 55.794V51.244H26.9439V55.514C26.9439 56.13 27.0979 56.606 27.4059 56.942C27.7139 57.2687 28.1339 57.432 28.6659 57.432C29.2072 57.432 29.6319 57.2687 29.9399 56.942C30.2479 56.606 30.4019 56.13 30.4019 55.514V51.244H32.3759ZM41.5198 54.954C41.5198 55.234 41.5011 55.486 41.4638 55.71H35.7938C35.8404 56.27 36.0364 56.7087 36.3818 57.026C36.7271 57.3433 37.1518 57.502 37.6558 57.502C38.3838 57.502 38.9018 57.1893 39.2098 56.564H41.3238C41.0998 57.3107 40.6704 57.9267 40.0358 58.412C39.4011 58.888 38.6218 59.126 37.6978 59.126C36.9511 59.126 36.2791 58.9627 35.6818 58.636C35.0938 58.3 34.6318 57.8287 34.2958 57.222C33.9691 56.6153 33.8057 55.9153 33.8057 55.122C33.8057 54.3193 33.9691 53.6147 34.2958 53.008C34.6224 52.4013 35.0798 51.9347 35.6678 51.608C36.2558 51.2813 36.9324 51.118 37.6978 51.118C38.4351 51.118 39.0931 51.2767 39.6718 51.594C40.2598 51.9113 40.7124 52.364 41.0298 52.952C41.3564 53.5307 41.5198 54.198 41.5198 54.954ZM39.4898 54.394C39.4804 53.89 39.2984 53.4887 38.9438 53.19C38.5891 52.882 38.1551 52.728 37.6418 52.728C37.1564 52.728 36.7458 52.8773 36.4098 53.176C36.0831 53.4653 35.8824 53.8713 35.8078 54.394H39.4898ZM49.8423 52.854H48.4843V59H46.4963V52.854H45.6143V51.244H46.4963V50.852C46.4963 49.9 46.767 49.2 47.3083 48.752C47.8496 48.304 48.6663 48.094 49.7583 48.122V49.774C49.2823 49.7647 48.951 49.844 48.7643 50.012C48.5776 50.18 48.4843 50.4833 48.4843 50.922V51.244H49.8423V52.854ZM54.5565 59.126C53.8098 59.126 53.1378 58.9627 52.5405 58.636C51.9432 58.3 51.4718 57.8287 51.1265 57.222C50.7905 56.6153 50.6225 55.9153 50.6225 55.122C50.6225 54.3287 50.7952 53.6287 51.1405 53.022C51.4952 52.4153 51.9758 51.9487 52.5825 51.622C53.1892 51.286 53.8658 51.118 54.6125 51.118C55.3592 51.118 56.0358 51.286 56.6425 51.622C57.2492 51.9487 57.7252 52.4153 58.0705 53.022C58.4252 53.6287 58.6025 54.3287 58.6025 55.122C58.6025 55.9153 58.4205 56.6153 58.0565 57.222C57.7018 57.8287 57.2165 58.3 56.6005 58.636C55.9938 58.9627 55.3125 59.126 54.5565 59.126ZM54.5565 57.418C54.9112 57.418 55.2425 57.334 55.5505 57.166C55.8678 56.9887 56.1198 56.7273 56.3065 56.382C56.4932 56.0367 56.5865 55.6167 56.5865 55.122C56.5865 54.3847 56.3905 53.82 55.9985 53.428C55.6158 53.0267 55.1445 52.826 54.5845 52.826C54.0245 52.826 53.5532 53.0267 53.1705 53.428C52.7972 53.82 52.6105 54.3847 52.6105 55.122C52.6105 55.8593 52.7925 56.4287 53.1565 56.83C53.5298 57.222 53.9965 57.418 54.5565 57.418ZM62.0002 52.448C62.2522 52.0373 62.5789 51.7153 62.9802 51.482C63.3909 51.2487 63.8576 51.132 64.3802 51.132V53.19H63.8622C63.2462 53.19 62.7796 53.3347 62.4622 53.624C62.1542 53.9133 62.0002 54.4173 62.0002 55.136V59H60.0402V51.244H62.0002V52.448ZM79.6903 49.228V59H77.7303V52.644L75.1123 59H73.6283L70.9963 52.644V59H69.0363V49.228H71.2623L74.3703 56.494L77.4783 49.228H79.6903ZM85.0721 59.126C84.3254 59.126 83.6534 58.9627 83.0561 58.636C82.4588 58.3 81.9874 57.8287 81.6421 57.222C81.3061 56.6153 81.1381 55.9153 81.1381 55.122C81.1381 54.3287 81.3108 53.6287 81.6561 53.022C82.0108 52.4153 82.4914 51.9487 83.0981 51.622C83.7048 51.286 84.3814 51.118 85.1281 51.118C85.8748 51.118 86.5514 51.286 87.1581 51.622C87.7648 51.9487 88.2408 52.4153 88.5861 53.022C88.9408 53.6287 89.1181 54.3287 89.1181 55.122C89.1181 55.9153 88.9361 56.6153 88.5721 57.222C88.2174 57.8287 87.7321 58.3 87.1161 58.636C86.5094 58.9627 85.8281 59.126 85.0721 59.126ZM85.0721 57.418C85.4268 57.418 85.7581 57.334 86.0661 57.166C86.3834 56.9887 86.6354 56.7273 86.8221 56.382C87.0088 56.0367 87.1021 55.6167 87.1021 55.122C87.1021 54.3847 86.9061 53.82 86.5141 53.428C86.1314 53.0267 85.6601 52.826 85.1001 52.826C84.5401 52.826 84.0688 53.0267 83.6861 53.428C83.3128 53.82 83.1261 54.3847 83.1261 55.122C83.1261 55.8593 83.3081 56.4287 83.6721 56.83C84.0454 57.222 84.5121 57.418 85.0721 57.418ZM94.8538 51.132C95.7778 51.132 96.5245 51.426 97.0938 52.014C97.6632 52.5927 97.9478 53.4047 97.9478 54.45V59H95.9878V54.716C95.9878 54.1 95.8338 53.6287 95.5258 53.302C95.2178 52.966 94.7978 52.798 94.2658 52.798C93.7245 52.798 93.2952 52.966 92.9778 53.302C92.6698 53.6287 92.5158 54.1 92.5158 54.716V59H90.5558V51.244H92.5158V52.21C92.7772 51.874 93.1085 51.6127 93.5098 51.426C93.9205 51.23 94.3685 51.132 94.8538 51.132ZM107.022 54.954C107.022 55.234 107.003 55.486 106.966 55.71H101.296C101.342 56.27 101.538 56.7087 101.884 57.026C102.229 57.3433 102.654 57.502 103.158 57.502C103.886 57.502 104.404 57.1893 104.712 56.564H106.826C106.602 57.3107 106.172 57.9267 105.538 58.412C104.903 58.888 104.124 59.126 103.2 59.126C102.453 59.126 101.781 58.9627 101.184 58.636C100.596 58.3 100.134 57.8287 99.7977 57.222C99.471 56.6153 99.3077 55.9153 99.3077 55.122C99.3077 54.3193 99.471 53.6147 99.7977 53.008C100.124 52.4013 100.582 51.9347 101.17 51.608C101.758 51.2813 102.434 51.118 103.2 51.118C103.937 51.118 104.595 51.2767 105.174 51.594C105.762 51.9113 106.214 52.364 106.532 52.952C106.858 53.5307 107.022 54.198 107.022 54.954ZM104.992 54.394C104.982 53.89 104.8 53.4887 104.446 53.19C104.091 52.882 103.657 52.728 103.144 52.728C102.658 52.728 102.248 52.8773 101.912 53.176C101.585 53.4653 101.384 53.8713 101.31 54.394H104.992ZM115.872 51.244L111.07 62.668H108.984L110.664 58.804L107.556 51.244H109.754L111.756 56.662L113.786 51.244H115.872Z" fill="black"/>
<defs>
<clipPath id="clip0_1_402">
<rect width="17.5" height="28" fill="white" transform="translate(50)"/>
</clipPath>
</defs>
</svg>
