<svg width="86" height="64" viewBox="0 0 86 64" fill="none" xmlns="http://www.w3.org/2000/svg">
<g clip-path="url(#clip0_1_397)">
<path d="M26.125 12.7143C26.125 8.49023 29.5527 5.0625 33.7768 5.0625C35.807 5.0625 37.7529 5.86934 39.1873 7.30371L43 11.1111L46.8074 7.30371C48.2471 5.86934 50.193 5.0625 52.2232 5.0625C56.4473 5.0625 59.875 8.49023 59.875 12.7143V14.2805C59.875 18.5098 56.4473 21.9375 52.2232 21.9375C50.193 21.9375 48.2471 21.1307 46.8127 19.6963L43 15.8889L39.1926 19.6963C37.7529 21.1307 35.807 21.9375 33.7768 21.9375C29.5527 21.9375 26.125 18.5098 26.125 14.2857V12.7143ZM40.6111 13.5L36.8037 9.69258C36.0021 8.89102 34.9105 8.4375 33.7768 8.4375C31.4143 8.4375 29.5 10.3518 29.5 12.7143V14.2805C29.5 16.643 31.4143 18.5572 33.7768 18.5572C34.9105 18.5572 36.0021 18.109 36.8037 17.3021L40.6111 13.5ZM45.3836 13.5L49.191 17.3074C49.9926 18.109 51.0842 18.5625 52.218 18.5625C54.5805 18.5625 56.4947 16.6482 56.4947 14.2857V12.7143C56.4947 10.3518 54.5805 8.4375 52.218 8.4375C51.0842 8.4375 49.9926 8.88574 49.191 9.69258L45.3889 13.5H45.3836Z" fill="black"/>
</g>
<path d="M14.028 48.228L11.298 58H8.988L7.154 51.042L5.236 58L2.94 58.014L0.308 48.228H2.408L4.13 55.816L6.118 48.228H8.302L10.178 55.774L11.914 48.228H14.028ZM16.3018 49.32C15.9565 49.32 15.6671 49.2127 15.4338 48.998C15.2098 48.774 15.0978 48.4987 15.0978 48.172C15.0978 47.8453 15.2098 47.5747 15.4338 47.36C15.6671 47.136 15.9565 47.024 16.3018 47.024C16.6471 47.024 16.9318 47.136 17.1558 47.36C17.3891 47.5747 17.5058 47.8453 17.5058 48.172C17.5058 48.4987 17.3891 48.774 17.1558 48.998C16.9318 49.2127 16.6471 49.32 16.3018 49.32ZM17.2678 50.244V58H15.3078V50.244H17.2678ZM18.7003 54.094C18.7003 53.31 18.8543 52.6147 19.1623 52.008C19.4796 51.4013 19.9089 50.9347 20.4503 50.608C20.9916 50.2813 21.5936 50.118 22.2563 50.118C22.7603 50.118 23.2409 50.23 23.6983 50.454C24.1556 50.6687 24.5196 50.958 24.7903 51.322V47.64H26.7783V58H24.7903V56.852C24.5476 57.2347 24.2069 57.5427 23.7683 57.776C23.3296 58.0093 22.8209 58.126 22.2423 58.126C21.5889 58.126 20.9916 57.958 20.4503 57.622C19.9089 57.286 19.4796 56.8147 19.1623 56.208C18.8543 55.592 18.7003 54.8873 18.7003 54.094ZM24.8043 54.122C24.8043 53.646 24.7109 53.24 24.5243 52.904C24.3376 52.5587 24.0856 52.2973 23.7683 52.12C23.4509 51.9333 23.1103 51.84 22.7463 51.84C22.3823 51.84 22.0463 51.9287 21.7383 52.106C21.4303 52.2833 21.1783 52.5447 20.9823 52.89C20.7956 53.226 20.7023 53.6273 20.7023 54.094C20.7023 54.5607 20.7956 54.9713 20.9823 55.326C21.1783 55.6713 21.4303 55.9373 21.7383 56.124C22.0556 56.3107 22.3916 56.404 22.7463 56.404C23.1103 56.404 23.4509 56.3153 23.7683 56.138C24.0856 55.9513 24.3376 55.69 24.5243 55.354C24.7109 55.0087 24.8043 54.598 24.8043 54.122ZM35.9026 53.954C35.9026 54.234 35.8839 54.486 35.8466 54.71H30.1766C30.2232 55.27 30.4192 55.7087 30.7646 56.026C31.1099 56.3433 31.5346 56.502 32.0386 56.502C32.7666 56.502 33.2846 56.1893 33.5926 55.564H35.7066C35.4826 56.3107 35.0532 56.9267 34.4186 57.412C33.7839 57.888 33.0046 58.126 32.0806 58.126C31.3339 58.126 30.6619 57.9627 30.0646 57.636C29.4766 57.3 29.0146 56.8287 28.6786 56.222C28.3519 55.6153 28.1886 54.9153 28.1886 54.122C28.1886 53.3193 28.3519 52.6147 28.6786 52.008C29.0052 51.4013 29.4626 50.9347 30.0506 50.608C30.6386 50.2813 31.3152 50.118 32.0806 50.118C32.8179 50.118 33.4759 50.2767 34.0546 50.594C34.6426 50.9113 35.0952 51.364 35.4126 51.952C35.7392 52.5307 35.9026 53.198 35.9026 53.954ZM33.8726 53.394C33.8632 52.89 33.6812 52.4887 33.3266 52.19C32.9719 51.882 32.5379 51.728 32.0246 51.728C31.5392 51.728 31.1286 51.8773 30.7926 52.176C30.4659 52.4653 30.2652 52.8713 30.1906 53.394H33.8726ZM45.7091 58L43.5531 54.192H42.6291V58H40.6691V48.228H44.3371C45.0931 48.228 45.7371 48.3633 46.2691 48.634C46.8011 48.8953 47.1978 49.2547 47.4591 49.712C47.7298 50.16 47.8651 50.664 47.8651 51.224C47.8651 51.868 47.6785 52.4513 47.3051 52.974C46.9318 53.4873 46.3765 53.842 45.6391 54.038L47.9771 58H45.7091ZM42.6291 52.722H44.2671C44.7991 52.722 45.1958 52.596 45.4571 52.344C45.7185 52.0827 45.8491 51.7233 45.8491 51.266C45.8491 50.818 45.7185 50.4727 45.4571 50.23C45.1958 49.978 44.7991 49.852 44.2671 49.852H42.6291V52.722ZM49.1339 54.094C49.1339 53.31 49.2879 52.6147 49.5959 52.008C49.9132 51.4013 50.3379 50.9347 50.8699 50.608C51.4112 50.2813 52.0132 50.118 52.6759 50.118C53.2545 50.118 53.7585 50.2347 54.1879 50.468C54.6265 50.7013 54.9765 50.9953 55.2379 51.35V50.244H57.2119V58H55.2379V56.866C54.9859 57.23 54.6359 57.5333 54.1879 57.776C53.7492 58.0093 53.2405 58.126 52.6619 58.126C52.0085 58.126 51.4112 57.958 50.8699 57.622C50.3379 57.286 49.9132 56.8147 49.5959 56.208C49.2879 55.592 49.1339 54.8873 49.1339 54.094ZM55.2379 54.122C55.2379 53.646 55.1445 53.24 54.9579 52.904C54.7712 52.5587 54.5192 52.2973 54.2019 52.12C53.8845 51.9333 53.5439 51.84 53.1799 51.84C52.8159 51.84 52.4799 51.9287 52.1719 52.106C51.8639 52.2833 51.6119 52.5447 51.4159 52.89C51.2292 53.226 51.1359 53.6273 51.1359 54.094C51.1359 54.5607 51.2292 54.9713 51.4159 55.326C51.6119 55.6713 51.8639 55.9373 52.1719 56.124C52.4892 56.3107 52.8252 56.404 53.1799 56.404C53.5439 56.404 53.8845 56.3153 54.2019 56.138C54.5192 55.9513 54.7712 55.69 54.9579 55.354C55.1445 55.0087 55.2379 54.598 55.2379 54.122ZM63.4242 50.132C64.3482 50.132 65.0948 50.426 65.6642 51.014C66.2335 51.5927 66.5182 52.4047 66.5182 53.45V58H64.5582V53.716C64.5582 53.1 64.4042 52.6287 64.0962 52.302C63.7882 51.966 63.3682 51.798 62.8362 51.798C62.2948 51.798 61.8655 51.966 61.5482 52.302C61.2402 52.6287 61.0862 53.1 61.0862 53.716V58H59.1262V50.244H61.0862V51.21C61.3475 50.874 61.6788 50.6127 62.0802 50.426C62.4908 50.23 62.9388 50.132 63.4242 50.132ZM71.42 50.118C71.9987 50.118 72.5073 50.2347 72.946 50.468C73.3847 50.692 73.73 50.986 73.982 51.35V50.244H75.956V58.056C75.956 58.7747 75.8113 59.414 75.522 59.974C75.2327 60.5433 74.7987 60.9913 74.22 61.318C73.6413 61.654 72.9413 61.822 72.12 61.822C71.0187 61.822 70.1133 61.5653 69.404 61.052C68.704 60.5387 68.3073 59.8387 68.214 58.952H70.16C70.2627 59.3067 70.482 59.5867 70.818 59.792C71.1633 60.0067 71.5787 60.114 72.064 60.114C72.6333 60.114 73.0953 59.9413 73.45 59.596C73.8047 59.26 73.982 58.7467 73.982 58.056V56.852C73.73 57.216 73.38 57.5193 72.932 57.762C72.4933 58.0047 71.9893 58.126 71.42 58.126C70.7667 58.126 70.1693 57.958 69.628 57.622C69.0867 57.286 68.6573 56.8147 68.34 56.208C68.032 55.592 67.878 54.8873 67.878 54.094C67.878 53.31 68.032 52.6147 68.34 52.008C68.6573 51.4013 69.082 50.9347 69.614 50.608C70.1553 50.2813 70.7573 50.118 71.42 50.118ZM73.982 54.122C73.982 53.646 73.8887 53.24 73.702 52.904C73.5153 52.5587 73.2633 52.2973 72.946 52.12C72.6287 51.9333 72.288 51.84 71.924 51.84C71.56 51.84 71.224 51.9287 70.916 52.106C70.608 52.2833 70.356 52.5447 70.16 52.89C69.9733 53.226 69.88 53.6273 69.88 54.094C69.88 54.5607 69.9733 54.9713 70.16 55.326C70.356 55.6713 70.608 55.9373 70.916 56.124C71.2333 56.3107 71.5693 56.404 71.924 56.404C72.288 56.404 72.6287 56.3153 72.946 56.138C73.2633 55.9513 73.5153 55.69 73.702 55.354C73.8887 55.0087 73.982 54.598 73.982 54.122ZM85.0803 53.954C85.0803 54.234 85.0616 54.486 85.0243 54.71H79.3543C79.401 55.27 79.597 55.7087 79.9423 56.026C80.2876 56.3433 80.7123 56.502 81.2163 56.502C81.9443 56.502 82.4623 56.1893 82.7703 55.564H84.8843C84.6603 56.3107 84.231 56.9267 83.5963 57.412C82.9616 57.888 82.1823 58.126 81.2583 58.126C80.5116 58.126 79.8396 57.9627 79.2423 57.636C78.6543 57.3 78.1923 56.8287 77.8563 56.222C77.5296 55.6153 77.3663 54.9153 77.3663 54.122C77.3663 53.3193 77.5296 52.6147 77.8563 52.008C78.183 51.4013 78.6403 50.9347 79.2283 50.608C79.8163 50.2813 80.493 50.118 81.2583 50.118C81.9956 50.118 82.6536 50.2767 83.2323 50.594C83.8203 50.9113 84.273 51.364 84.5903 51.952C84.917 52.5307 85.0803 53.198 85.0803 53.954ZM83.0503 53.394C83.041 52.89 82.859 52.4887 82.5043 52.19C82.1496 51.882 81.7156 51.728 81.2023 51.728C80.717 51.728 80.3063 51.8773 79.9703 52.176C79.6436 52.4653 79.443 52.8713 79.3683 53.394H83.0503Z" fill="black"/>
<defs>
<clipPath id="clip0_1_397">
<rect width="33.75" height="27" fill="white" transform="translate(26.125)"/>
</clipPath>
</defs>
</svg>
